<svg width="256" height="29" fill="none" xmlns="http://www.w3.org/2000/svg"><path fill-rule="evenodd" clip-rule="evenodd" d="m80.77.09-2.84 4.88H75.2l-.87 1.43h2.76l-6.07 10.38c-1.28 2.21-.38 4.25 2.06 4.25 1.22 0 2.54-.64 3.85-1.62l-.78 1.33h3.05l4.59-7.88c4.64-5.77 6.7-5.02 5.4-2.81l-3.92 6.74c-1.28 2.2-.38 4.24 2.06 4.24 1.8 0 3.79-1.37 5.7-3.2.14 1.86 1.66 3.2 4.08 3.2 3.42 0 6.82-2.64 9.32-5.5-.2-.4-.72-.87-1.13-1.04l-.2.23c-2.18 2.5-4.96 4.47-7.08 4.47-1.86 0-2.97-1.14-1.57-3.55l.29-.52c1.94.8 5.6.43 7.87-3.44l.43-.75c1.63-2.75.06-4.82-2.4-4.82-2.45 0-4.4 1.27-5.67 3.44l-2.93 4.97-.17.2c-2.18 2.5-4.3 4.47-5.64 4.47-.66 0-1.04-.46-.34-1.63L92.23 10c1.3-2.26.06-3.9-1.62-3.9-1.31 0-2.7.72-4.21 2.27L91.22.09H88.2l-8.42 14.44-.17.19c-2.17 2.5-4.3 4.47-5.63 4.47-.67 0-1.05-.46-.35-1.63L80.11 6.4h2.46l.87-1.43h-2.5L83.8.09h-3.02Zm-32.3 4.88L51.3.09h3.02l-2.85 4.88h2.5l-.87 1.43h-2.46l-6.48 11.16c-.7 1.18-.32 1.64.35 1.64 1.33 0 3.45-1.98 5.63-4.48l.16-.18 1.23-2.08 1.48-2.56C54.76 6.92 56.56 6 58.88 6c2.85 0 4.53 2.96 2.7 6.08l-2.84 4.85a6.53 6.53 0 0 0 4.56-2.2l.2-.24c.41.17.93.63 1.13 1.04a9.2 9.2 0 0 1-6.18 2.9h-.67c-3.27 4.08-8.61 3.33-8.6-.47-1.87 1.77-3.81 3.07-5.56 3.07-2.44 0-3.34-2.03-2.07-4.24L47.62 6.4h-2.75l.87-1.43h2.73Zm10.8 6c1.02-1.75.55-2.95-.43-3.04-.76-.07-1.84.54-2.77 2.1l-1.45 2.43-2.3 3.93c-1.8 3.1 1.66 3.55 3.09 1.14l.03-.05c-.18-.3-.3-.64-.3-1 0-.98.79-1.79 1.77-1.79h.15l2.2-3.72Zm43.3-.03c1.02-1.75.49-2.66-.48-2.6-.76.04-1.77.67-2.54 1.96l-1.94 3.36c1.13.4 3.08.46 4.53-1.98l.44-.74Zm43.83-8.07c-1.71 1.52-1.85 3.21-.78 4.59l.26.34-.06.09c-1.33 1.86-3.1 4.34-5.05 6.6l-.2.23a6.54 6.54 0 0 1-4.56 2.2l2.85-4.84c1.83-3.13.14-6.08-2.7-6.08-2.32 0-4.12.92-5.86 3.9l-1.49 2.55-1.23 2.1-.16.17c-2.5 2.84-4.64 4.67-7.02 5.68l6.76-11.42h-1.77c0-1.23-1.28-2.87-3.17-2.87-1.62 0-3.89 1.27-5.16 3.45l-4.24 7.22c-1.28 2.21-.38 4.25 2.06 4.25.84 0 1.86-.37 2.88-1l-.85 1.4c-4.06 1.23-6.62 2.87-6.62 5.1 0 2.88 4.44 3.48 6.62-.2l2.3-3.92a18.44 18.44 0 0 0 7.23-4.47c-.02 3.82 5.34 4.57 8.62.48h.66a9.2 9.2 0 0 0 6.19-2.9c1.45-1.66 2.58-3.15 4.99-6.4l.4.5c.38.48.53 1.09.18 1.69l-3.2 5.48c-1.28 2.2-.38 4.24 2.06 4.24 1.53 0 3.2-1 4.85-2.42-.05 1.39.88 2.42 2.62 2.42a5.8 5.8 0 0 0 2.87-1l-.84 1.4c-4.07 1.23-6.62 2.87-6.62 5.1 0 2.88 4.44 3.48 6.62-.2l2.29-3.92c2.46-.76 4.87-2.21 7.38-4.6.13 1.87 1.66 3.22 4.09 3.22 2.46 0 4.9-1.36 7-3.19-.12 3.9 5.31 4.7 8.61.58h.67c.95 0 2.18-.3 3.36-.85-.81 2.07-.07 3.46 1.66 3.46 1.66 0 3.51-1.49 4.96-2.87-.29 1.6.67 2.87 2.59 2.87 2.5 0 5.37-2.64 7.87-5.5 1.35-1.55 2.58-3.18 3.56-4.5l.73-.95c-.4 1.04-.6 2.36-.78 3.65-.38 2.55-.74 5-2.65 5-1.01 0-1.42-1.08-1.42-1.08l-1.88.97s.55 2.41 3.3 2.41c.27 0 .52-.02.78-.05h.06l.05-.02.05-.01c3.07-.4 6.12-2.81 8.38-5.42a1.9 1.9 0 0 0-1.13-1.04l-.2.23a18.85 18.85 0 0 1-3.63 3.24c.38-1.11.57-2.46.79-3.92.33-2.25.7-4.77 1.82-7.1l-2.26-1.2-.83 1.15c-1.43 1.96-3.65 5.03-5.88 7.6l-.2.23c-2.17 2.5-4.3 4.47-5.63 4.47-.67 0-1.04-.46-.35-1.63l6.45-11.16h-3.02l-5.37 9.27c-2.3 2.06-4.06 3.2-4.65 2.95-.7-.3-.1-1.28.3-1.92l.08-.14 5.9-10.16h-3.03l-4.73 8.1-.2.22a6.54 6.54 0 0 1-4.56 2.21l2.85-4.85c1.83-3.13.15-6.08-2.7-6.08-2.32 0-4.12.92-5.86 3.9l-1.49 2.55-1.23 2.1-.16.17c-2.17 2.5-4.96 4.48-7.08 4.48-1.86 0-2.96-1.15-1.57-3.56l.3-.52c1.94.8 5.6.43 7.86-3.44l.44-.75c1.62-2.75.06-4.81-2.41-4.81-2.44 0-4.39 1.26-5.67 3.44l-2.92 4.96-.18.2c-2.5 2.84-4.64 4.67-7.03 5.68l6.77-11.42h-1.77c0-1.23-1.28-2.87-3.17-2.87-1.62 0-3.89 1.27-5.16 3.45l-2.9 4.93-.21.23c-2.18 2.5-4.3 4.47-5.63 4.47-.67 0-1.05-.46-.35-1.63l3.02-5.22c1.04-1.8.55-2.87-.44-4.05l-1.68-2c-.44-.55-.44-1.15.17-1.73l-1.57-1.7Zm-9.87 8.1c1.03-1.75.56-2.95-.42-3.04-.76-.07-1.84.54-2.77 2.1l-1.45 2.43-2.3 3.93c-1.8 3.1 1.66 3.55 3.09 1.14l.02-.05a1.95 1.95 0 0 1-.29-1c0-.98.79-1.79 1.77-1.79h.15l2.2-3.72Zm49.74-3.04c.98.09 1.45 1.3.42 3.04l-2.2 3.72h-.15c-.99 0-1.77.8-1.77 1.78 0 .37.12.72.3 1l-.04.06c-1.42 2.41-4.87 1.95-3.07-1.14l2.29-3.93 1.45-2.44c.93-1.55 2-2.16 2.77-2.09Zm-11.22 3c1.01-1.74.49-2.65-.48-2.6-.75.05-1.77.68-2.53 1.97l-1.95 3.36c1.13.4 3.08.46 4.53-1.98l.43-.74Zm-52.89-2.4c1.03 0 1.68.89.85 2.4l-2.3 3.96c-1.82 2.9-3.65 4.3-4.93 4.3-.67 0-1.05-.45-.35-1.63l4.21-7.25c.71-1.22 1.73-1.77 2.53-1.78Zm39.77 2.4c.84-1.51.18-2.4-.84-2.4-.8.01-1.81.56-2.52 1.78l-4.21 7.25c-.7 1.18-.32 1.64.34 1.64 1.28 0 3.11-1.4 4.94-4.3l2.3-3.96Zm-46.18 12.51c-2.3.9-3.02 1.78-3.02 2.55 0 .8 1.02.98 1.66-.14l1.36-2.4Zm38.92 0Zm0 0-1.36 2.41c-.64 1.12-1.65.95-1.65.14 0-.77.72-1.66 3.01-2.55ZM.03 11.84h28.92v1.94H.03v-1.95Zm255.95 0h-28.92v1.94h28.92v-1.95Z" fill="#766458"/></svg>