<svg width="74" height="11" fill="none" xmlns="http://www.w3.org/2000/svg"><path d="m3.22 6.77.23 1.62.25-1.65L5.7.2h.56L8.3 6.77l.24 1.62h.02l.25-1.65L10.46.2h1.13l-2.73 9.95h-.64L6.23 3.6 5.98 2.1H5.9l-.25 1.5-2 6.55h-.63L.23.2h1.23l1.76 6.57ZM12.9.2h5.33v1.04h-4.17v3.2h3.82v1.04h-3.82v3.48h4.24V10h-5.4V.2ZM26.3 2.44a2.42 2.42 0 0 1-.45 1.4c-.15.2-.34.39-.57.55-.23.15-.51.28-.83.36v.06c.28.04.55.12.8.23a2.17 2.17 0 0 1 1.16 1.18c.12.28.18.61.18 1a2.6 2.6 0 0 1-1.14 2.2c-.34.24-.73.41-1.17.52-.43.12-.88.17-1.34.17h-.56c-.21 0-.44 0-.67-.03a8.82 8.82 0 0 1-1.32-.15V.28a15.5 15.5 0 0 1 3.81-.1c.38.06.73.18 1.04.36a2.05 2.05 0 0 1 1.06 1.9ZM23.06 9.1c.3 0 .6-.03.87-.1.28-.07.53-.18.74-.33.22-.16.39-.35.5-.57.14-.23.2-.5.2-.8a1.55 1.55 0 0 0-.84-1.47 2.53 2.53 0 0 0-.82-.27c-.31-.04-.62-.07-.93-.07h-1.22v3.52l.28.04a38.6 38.6 0 0 0 .83.05h.4Zm-.77-4.59a14.1 14.1 0 0 0 1.14-.05 2.74 2.74 0 0 0 1.15-.64 1.58 1.58 0 0 0 .32-1.9 1.3 1.3 0 0 0-.47-.49c-.2-.12-.42-.2-.67-.25-.25-.06-.5-.08-.77-.08a12.04 12.04 0 0 0-1.43.08v3.33h.73Zm10.71 3c0-.4-.11-.71-.35-.95a3.25 3.25 0 0 0-.88-.66c-.34-.2-.72-.38-1.13-.55-.41-.17-.8-.37-1.15-.6a3.39 3.39 0 0 1-.87-.88 2.4 2.4 0 0 1-.35-1.35c0-.76.27-1.37.8-1.82a3.43 3.43 0 0 1 2.27-.67c.57 0 1.08.04 1.55.13.47.08.83.19 1.1.32l-.36 1.02a6.35 6.35 0 0 0-2.35-.43c-.62 0-1.08.14-1.39.42-.3.27-.46.6-.46.96 0 .37.12.67.35.91.24.25.53.47.87.66.36.19.74.38 1.15.56.4.19.79.4 1.13.66.36.24.65.54.88.88.24.35.35.78.35 1.29 0 .42-.07.8-.22 1.13-.15.34-.37.63-.66.87-.29.24-.64.43-1.05.56-.4.13-.87.2-1.4.2-.7 0-1.28-.06-1.73-.17-.46-.1-.82-.22-1.07-.35l.4-1.05a5.5 5.5 0 0 0 3.23.45c.27-.07.5-.17.7-.3A1.53 1.53 0 0 0 33 7.51ZM36.28.2h1.16V10h-1.16V.2Zm10.14 1.04h-3.05V10H42.2V1.24h-3.05V.2h7.27v1.04ZM47.86.2h5.33v1.04h-4.17v3.2h3.82v1.04h-3.82v3.48h4.24V10h-5.4V.2ZM65 2.44a2.42 2.42 0 0 1-.45 1.4c-.14.2-.34.39-.57.55-.23.15-.5.28-.83.36v.06c.28.04.55.12.8.23a2.17 2.17 0 0 1 1.16 1.18c.13.28.19.61.19 1a2.6 2.6 0 0 1-1.15 2.2c-.34.24-.73.41-1.16.52-.44.12-.89.17-1.35.17h-.56c-.21 0-.44 0-.67-.03a8.82 8.82 0 0 1-1.32-.15V.28a15.5 15.5 0 0 1 3.81-.1c.38.06.73.18 1.04.36A2.05 2.05 0 0 1 65 2.44ZM61.75 9.1c.3 0 .6-.03.87-.1.28-.07.53-.18.74-.33.22-.16.39-.35.5-.57.14-.23.2-.5.2-.8 0-.38-.08-.7-.23-.93a1.55 1.55 0 0 0-.6-.54 2.53 2.53 0 0 0-.83-.27c-.31-.04-.62-.07-.93-.07h-1.21v3.52l.28.04a38.6 38.6 0 0 0 .82.05h.4Zm-.77-4.59a14.1 14.1 0 0 0 1.14-.05 2.74 2.74 0 0 0 1.15-.64 1.58 1.58 0 0 0 .32-1.9 1.3 1.3 0 0 0-.46-.49c-.2-.12-.42-.2-.68-.25-.25-.06-.5-.08-.77-.08a12.04 12.04 0 0 0-1.42.08v3.33h.72Zm8.45 1.6L66.19.2h1.36l2.3 4.28.23.86h.02l.25-.88L72.55.2h1.24l-3.2 5.9V10h-1.16V6.1Z" fill="#000"/></svg>