<svg width="189" height="46" fill="none" xmlns="http://www.w3.org/2000/svg"><path fill-rule="evenodd" clip-rule="evenodd" d="M60.82 37.36v7.74H40.01V.35h20.81v7.67h-13.2v10.8h10.54v7.68H47.62v10.86h13.2Zm21.35 7.74v-7.74h-10.6v-37h-7.61V45.1h18.21Zm106.53 0v-7.74h-13.2V26.5h10.53v-7.67H175.5V8.03h13.2V.34h-20.82V45.1h20.82ZM163.46.35h-7.55l-6.8 21.6-6.79-21.6h-7.55V45.1h7.62V23.11l2.98 11.38h7.43l3.04-11.38v22h7.62V.34ZM124 8.02h-5.52v29.34H124V8.02Zm7.68-2.93a4.74 4.74 0 0 0-4.7-4.74h-11.42a4.7 4.7 0 0 0-4.7 4.74v35.28c0 2.56 2.1 4.73 4.7 4.73h11.42c2.54 0 4.7-2.17 4.7-4.73V5.09ZM98.98 28.6l7.67-1.8v13.56a4.79 4.79 0 0 1-4.7 4.73H90.53c-2.6 0-4.7-2.18-4.7-4.73V5.08a4.7 4.7 0 0 1 4.7-4.73h11.42c2.54 0 4.7 2.11 4.7 4.73v9.08l-7.68 1.8V8.01h-5.52v29.34h5.52v-8.75ZM36.23.35h-7.68L28 37.36h-.76l-4.89-37H14.8l-4.76 37h-.82l-.64-37H.96L2.1 45.1h14.53l1.97-18.47 1.97 18.47h14.47L36.24.35Z" fill="#81B3D3"/></svg>